<svg width="165" height="36" viewBox="0 0 165 36" fill="none" xmlns="http://www.w3.org/2000/svg">
<path d="M50.9347 10.781C54.8606 10.781 58.0539 13.892 58.0539 17.7168C58.0539 21.5416 54.8606 24.6526 50.9347 24.6526H46.0529V10.781H50.9347ZM50.9347 6.81042H44.2173C42.9936 6.81042 41.9773 7.79796 41.9773 8.99273V26.4435C41.9773 27.6357 42.9909 28.6258 44.2173 28.6258H50.9347C57.1269 28.6258 62.1295 23.7521 62.1295 17.7194C62.1295 11.6867 57.1269 6.81042 50.9347 6.81042Z" fill="black"/>
<path d="M81.7851 26.6431C81.7851 27.7278 80.8634 28.6258 79.75 28.6258C78.6365 28.6258 77.7148 27.7278 77.7148 26.6431V20.6948C77.7148 18.4946 75.9028 16.7293 73.6444 16.7293C71.386 16.7293 69.574 18.4946 69.574 20.6948V26.6431C69.574 27.7278 68.6523 28.6258 67.5388 28.6258C66.4254 28.6258 65.5037 27.7278 65.5037 26.6431V8.79574C65.5037 7.71098 66.4254 6.81299 67.5388 6.81299C68.6523 6.81299 69.574 7.71098 69.574 8.79574V13.846C70.7505 13.1655 72.1502 12.7612 73.6444 12.7612C78.1271 12.7612 81.7851 16.3251 81.7851 20.6923V26.6431Z" fill="black"/>
<path d="M89.7996 26.6431C89.7996 27.7278 88.8779 28.6258 87.7644 28.6258C86.651 28.6258 85.7292 27.7278 85.7292 26.6431V14.7465C85.7292 13.6618 86.651 12.7638 87.7644 12.7638C88.8779 12.7638 89.7996 13.6618 89.7996 14.7465V26.6431Z" fill="black"/>
<path d="M116.641 26.6431C116.641 27.7278 115.719 28.6258 114.605 28.6258C114.064 28.6258 113.555 28.4084 113.174 28.0374L105.446 20.5081L97.72 28.0374C97.3393 28.4084 96.8298 28.6258 96.2888 28.6258C95.1754 28.6258 94.2537 27.7278 94.2537 26.6431V8.79574C94.2537 7.71098 95.1754 6.81299 96.2888 6.81299C97.4023 6.81299 98.324 7.71098 98.324 8.79574V21.8717L104.017 16.3251C104.398 15.9234 104.939 15.7366 105.448 15.7366C105.958 15.7366 106.499 15.9234 106.88 16.3251L112.573 21.8717V8.79574C112.573 7.71098 113.495 6.81299 114.608 6.81299C115.722 6.81299 116.643 7.71098 116.643 8.79574V26.6431H116.641Z" fill="black"/>
<path d="M125.165 26.6431C125.165 27.7278 124.243 28.6258 123.13 28.6258C122.016 28.6258 121.094 27.7278 121.094 26.6431V14.7465C121.094 13.6618 122.016 12.7638 123.13 12.7638C124.243 12.7638 125.165 13.6618 125.165 14.7465V26.6431Z" fill="black"/>
<path d="M138.269 24.6603C138.841 24.6603 139.285 24.228 139.285 23.6677C139.285 23.1074 138.841 22.675 138.269 22.675H134.199C131.399 22.675 129.109 20.4441 129.109 17.7168C129.109 14.9896 131.399 12.7587 134.199 12.7587H140.304C141.418 12.7587 142.339 13.6567 142.339 14.7414C142.339 15.8262 141.418 16.7242 140.304 16.7242H134.199C133.626 16.7242 133.18 17.1565 133.18 17.7168C133.18 18.2771 133.624 18.7095 134.199 18.7095H138.269C141.068 18.7095 143.356 20.9404 143.356 23.6677C143.356 26.3949 141.066 28.6258 138.269 28.6258H131.145C130.031 28.6258 129.109 27.7278 129.109 26.6431C129.109 25.5583 130.031 24.6603 131.145 24.6603H138.269Z" fill="black"/>
<path d="M154.424 28.6258C149.939 28.6258 146.283 25.062 146.283 20.6948C146.283 16.3276 149.939 12.7638 154.424 12.7638C158.907 12.7638 162.565 16.3276 162.565 20.6948C162.565 21.7796 161.643 22.6776 160.53 22.6776H150.892C151.593 23.8851 152.896 24.6603 154.421 24.6603H156.457C157.57 24.6603 158.492 25.5583 158.492 26.6431C158.492 27.7278 157.57 28.6258 156.457 28.6258H154.424ZM150.892 18.7095H157.951C157.252 17.5326 155.916 16.7267 154.421 16.7267C152.896 16.7267 151.593 17.5326 150.892 18.7095Z" fill="black"/>
<path d="M87.7653 11.2748C89.0299 11.2748 90.0552 10.276 90.0552 9.0439C90.0552 7.8118 89.0299 6.81299 87.7653 6.81299C86.5006 6.81299 85.4753 7.8118 85.4753 9.0439C85.4753 10.276 86.5006 11.2748 87.7653 11.2748Z" fill="url(#paint0_linear_50_4)"/>
<path d="M123.13 11.2748C124.394 11.2748 125.419 10.276 125.419 9.0439C125.419 7.8118 124.394 6.81299 123.13 6.81299C121.865 6.81299 120.84 7.8118 120.84 9.0439C120.84 10.276 121.865 11.2748 123.13 11.2748Z" fill="url(#paint1_linear_50_4)"/>
<path d="M25.3623 0H2.33455C1.04516 0 0 1.01824 0 2.27441V27.0601C0 27.9811 0.56985 28.81 1.4417 29.1605C2.31091 29.511 3.31669 29.3166 3.98633 28.6667L15.2284 17.7143C16.1396 16.8265 16.1396 15.3862 15.2284 14.4984C14.3172 13.6106 12.8387 13.6106 11.9275 14.4984L4.6691 21.5698V4.54882H25.3649C28.8602 4.54882 31.7015 7.31955 31.7015 10.7222V24.7089C31.7015 28.1141 28.8575 30.8823 25.3649 30.8823H14.2305L21.4889 23.8109C22.4001 22.9232 22.4001 21.4828 21.4889 20.595C20.5776 19.7073 19.0992 19.7073 18.1879 20.595L6.94325 31.5501C6.27623 32.1999 6.07665 33.1797 6.43642 34.0291C6.79881 34.8785 7.64965 35.4337 8.5924 35.4337H25.3597C31.4284 35.4337 36.3654 30.6239 36.3654 24.7115V10.7248C36.3706 4.81233 31.4337 0 25.3623 0Z" fill="url(#paint2_linear_50_4)"/>
<path d="M25.2652 19.193C26.5546 19.193 27.5998 18.1748 27.5998 16.9187V10.8195C27.5998 9.56328 26.5546 8.54504 25.2652 8.54504H19.0047C17.7153 8.54504 16.6702 9.56328 16.6702 10.8195C16.6702 12.0756 17.7153 13.0939 19.0047 13.0939H22.9306V16.9187C22.9306 18.1748 23.9758 19.193 25.2652 19.193Z" fill="url(#paint3_linear_50_4)"/>
<defs>
<linearGradient id="paint0_linear_50_4" x1="85.4753" y1="9.0439" x2="90.0552" y2="9.0439" gradientUnits="userSpaceOnUse">
<stop stop-color="#0068FF"/>
<stop offset="1" stop-color="#0000E1"/>
</linearGradient>
<linearGradient id="paint1_linear_50_4" x1="120.84" y1="9.0439" x2="125.419" y2="9.0439" gradientUnits="userSpaceOnUse">
<stop stop-color="#FF9852"/>
<stop offset="0.2774" stop-color="#FF8A3A"/>
<stop offset="1" stop-color="#FF6700"/>
</linearGradient>
<linearGradient id="paint2_linear_50_4" x1="12.8562" y1="12.5286" x2="37.9051" y2="-13.1752" gradientUnits="userSpaceOnUse">
<stop stop-color="#0068FF"/>
<stop offset="1" stop-color="#0000E1"/>
</linearGradient>
<linearGradient id="paint3_linear_50_4" x1="20.5344" y1="12.3097" x2="28.0611" y2="4.58394" gradientUnits="userSpaceOnUse">
<stop stop-color="#FF9852"/>
<stop offset="0.2774" stop-color="#FF8A3A"/>
<stop offset="1" stop-color="#FF6700"/>
</linearGradient>
</defs>
</svg>
