<svg width="50" height="49" viewBox="0 0 50 49" fill="none" xmlns="http://www.w3.org/2000/svg">
<path d="M41.6666 6.12496H39.5833V4.08329C39.5833 2.96038 38.6458 2.04163 37.5 2.04163C36.3541 2.04163 35.4166 2.96038 35.4166 4.08329V6.12496H14.5833V4.08329C14.5833 2.96038 13.6458 2.04163 12.5 2.04163C11.3541 2.04163 10.4166 2.96038 10.4166 4.08329V6.12496H8.33329C6.04163 6.12496 4.16663 7.96246 4.16663 10.2083V42.875C4.16663 45.1208 6.04163 46.9583 8.33329 46.9583H41.6666C43.9583 46.9583 45.8333 45.1208 45.8333 42.875V10.2083C45.8333 7.96246 43.9583 6.12496 41.6666 6.12496ZM39.5833 42.875H10.4166C9.27079 42.875 8.33329 41.9562 8.33329 40.8333V16.3333H41.6666V40.8333C41.6666 41.9562 40.7291 42.875 39.5833 42.875Z" fill="white"/>
</svg>
