<svg width="50" height="50" viewBox="0 0 50 50" fill="none" xmlns="http://www.w3.org/2000/svg">
<path d="M25 4.16667C13.5 4.16667 4.16663 13.5 4.16663 25C4.16663 36.5 13.5 45.8333 25 45.8333C36.5 45.8333 45.8333 36.5 45.8333 25C45.8333 13.5 36.5 4.16667 25 4.16667ZM25 41.6667C15.7916 41.6667 8.33329 34.2083 8.33329 25C8.33329 15.7917 15.7916 8.33333 25 8.33333C34.2083 8.33333 41.6666 15.7917 41.6666 25C41.6666 34.2083 34.2083 41.6667 25 41.6667Z" fill="white"/>
<path d="M25 35.4167C30.753 35.4167 35.4167 30.753 35.4167 25C35.4167 19.247 30.753 14.5833 25 14.5833C19.2471 14.5833 14.5834 19.247 14.5834 25C14.5834 30.753 19.2471 35.4167 25 35.4167Z" fill="white"/>
</svg>
