<svg width="165" height="36" viewBox="0 0 165 36" fill="none" xmlns="http://www.w3.org/2000/svg">
<path d="M50.935 10.781C54.8608 10.781 58.0541 13.892 58.0541 17.7168C58.0541 21.5416 54.8608 24.6526 50.935 24.6526H46.0531V10.781H50.935ZM50.935 6.81042H44.2175C42.9938 6.81042 41.9775 7.79796 41.9775 8.99273V26.4435C41.9775 27.6357 42.9912 28.6258 44.2175 28.6258H50.935C57.1271 28.6258 62.1297 23.7521 62.1297 17.7194C62.1297 11.6867 57.1271 6.81042 50.935 6.81042Z" fill="black"/>
<path d="M81.7853 26.6431C81.7853 27.7278 80.8636 28.6258 79.7502 28.6258C78.6367 28.6258 77.715 27.7278 77.715 26.6431V20.6948C77.715 18.4946 75.903 16.7293 73.6446 16.7293C71.3862 16.7293 69.5743 18.4946 69.5743 20.6948V26.6431C69.5743 27.7278 68.6525 28.6258 67.5391 28.6258C66.4257 28.6258 65.5039 27.7278 65.5039 26.6431V8.79574C65.5039 7.71098 66.4257 6.81299 67.5391 6.81299C68.6525 6.81299 69.5743 7.71098 69.5743 8.79574V13.846C70.7507 13.1655 72.1504 12.7612 73.6446 12.7612C78.1273 12.7612 81.7853 16.3251 81.7853 20.6923V26.6431Z" fill="black"/>
<path d="M89.7998 26.6431C89.7998 27.7278 88.8781 28.6258 87.7647 28.6258C86.6512 28.6258 85.7295 27.7278 85.7295 26.6431V14.7465C85.7295 13.6618 86.6512 12.7638 87.7647 12.7638C88.8781 12.7638 89.7998 13.6618 89.7998 14.7465V26.6431Z" fill="black"/>
<path d="M116.641 26.6431C116.641 27.7278 115.719 28.6258 114.606 28.6258C114.065 28.6258 113.555 28.4084 113.175 28.0374L105.446 20.5081L97.7203 28.0374C97.3395 28.4084 96.83 28.6258 96.2891 28.6258C95.1756 28.6258 94.2539 27.7278 94.2539 26.6431V8.79574C94.2539 7.71098 95.1756 6.81299 96.2891 6.81299C97.4025 6.81299 98.3243 7.71098 98.3243 8.79574V21.8717L104.018 16.3251C104.398 15.9234 104.939 15.7366 105.449 15.7366C105.958 15.7366 106.499 15.9234 106.88 16.3251L112.573 21.8717V8.79574C112.573 7.71098 113.495 6.81299 114.608 6.81299C115.722 6.81299 116.644 7.71098 116.644 8.79574V26.6431H116.641Z" fill="black"/>
<path d="M125.165 26.6431C125.165 27.7278 124.243 28.6258 123.13 28.6258C122.016 28.6258 121.095 27.7278 121.095 26.6431V14.7465C121.095 13.6618 122.016 12.7638 123.13 12.7638C124.243 12.7638 125.165 13.6618 125.165 14.7465V26.6431Z" fill="black"/>
<path d="M138.269 24.6601C138.841 24.6601 139.285 24.2278 139.285 23.6675C139.285 23.1072 138.841 22.6749 138.269 22.6749H134.199C131.399 22.6749 129.109 20.4439 129.109 17.7167C129.109 14.9895 131.399 12.7585 134.199 12.7585H140.304C141.418 12.7585 142.339 13.6565 142.339 14.7413C142.339 15.8261 141.418 16.724 140.304 16.724H134.199C133.626 16.724 133.18 17.1564 133.18 17.7167C133.18 18.277 133.624 18.7094 134.199 18.7094H138.269C141.068 18.7094 143.356 20.9403 143.356 23.6675C143.356 26.3947 141.066 28.6256 138.269 28.6256H131.145C130.031 28.6256 129.109 27.7276 129.109 26.6429C129.109 25.5581 130.031 24.6601 131.145 24.6601H138.269Z" fill="black"/>
<path d="M154.424 28.6258C149.939 28.6258 146.284 25.062 146.284 20.6948C146.284 16.3276 149.939 12.7638 154.424 12.7638C158.907 12.7638 162.565 16.3276 162.565 20.6948C162.565 21.7796 161.643 22.6776 160.53 22.6776H150.892C151.594 23.8851 152.896 24.6603 154.422 24.6603H156.457C157.57 24.6603 158.492 25.5583 158.492 26.6431C158.492 27.7278 157.57 28.6258 156.457 28.6258H154.424ZM150.892 18.7095H157.951C157.253 17.5326 155.916 16.7267 154.422 16.7267C152.896 16.7267 151.594 17.5326 150.892 18.7095Z" fill="black"/>
<path d="M87.7655 11.2748C89.0302 11.2748 90.0554 10.276 90.0554 9.0439C90.0554 7.8118 89.0302 6.81299 87.7655 6.81299C86.5008 6.81299 85.4756 7.8118 85.4756 9.0439C85.4756 10.276 86.5008 11.2748 87.7655 11.2748Z" fill="url(#paint0_linear_51_223)"/>
<path d="M123.13 11.2748C124.394 11.2748 125.42 10.276 125.42 9.0439C125.42 7.8118 124.394 6.81299 123.13 6.81299C121.865 6.81299 120.84 7.8118 120.84 9.0439C120.84 10.276 121.865 11.2748 123.13 11.2748Z" fill="url(#paint1_linear_51_223)"/>
<path d="M25.3623 0H2.33455C1.04516 0 0 1.01824 0 2.27441V27.0601C0 27.9811 0.56985 28.81 1.4417 29.1605C2.31091 29.511 3.31669 29.3166 3.98633 28.6667L15.2284 17.7143C16.1396 16.8265 16.1396 15.3862 15.2284 14.4984C14.3172 13.6106 12.8387 13.6106 11.9275 14.4984L4.6691 21.5698V4.54882H25.3649C28.8602 4.54882 31.7015 7.31955 31.7015 10.7222V24.7089C31.7015 28.1141 28.8575 30.8823 25.3649 30.8823H14.2305L21.4889 23.8109C22.4001 22.9232 22.4001 21.4828 21.4889 20.595C20.5776 19.7073 19.0992 19.7073 18.1879 20.595L6.94325 31.5501C6.27623 32.1999 6.07665 33.1797 6.43642 34.0291C6.79881 34.8785 7.64965 35.4337 8.5924 35.4337H25.3597C31.4284 35.4337 36.3654 30.6239 36.3654 24.7115V10.7248C36.3706 4.81233 31.4337 0 25.3623 0Z" fill="url(#paint2_linear_51_223)"/>
<path d="M25.265 19.193C26.5543 19.193 27.5995 18.1748 27.5995 16.9187V10.8195C27.5995 9.56328 26.5543 8.54504 25.265 8.54504H19.0045C17.7151 8.54504 16.6699 9.56328 16.6699 10.8195C16.6699 12.0756 17.7151 13.0939 19.0045 13.0939H22.9304V16.9187C22.9304 18.1748 23.9756 19.193 25.265 19.193Z" fill="url(#paint3_linear_51_223)"/>
<defs>
<linearGradient id="paint0_linear_51_223" x1="85.4756" y1="9.0439" x2="90.0554" y2="9.0439" gradientUnits="userSpaceOnUse">
<stop stop-color="#0068FF"/>
<stop offset="1" stop-color="#0000E1"/>
</linearGradient>
<linearGradient id="paint1_linear_51_223" x1="120.84" y1="9.0439" x2="125.42" y2="9.0439" gradientUnits="userSpaceOnUse">
<stop stop-color="#FF9852"/>
<stop offset="0.2774" stop-color="#FF8A3A"/>
<stop offset="1" stop-color="#FF6700"/>
</linearGradient>
<linearGradient id="paint2_linear_51_223" x1="12.8562" y1="12.5286" x2="37.9051" y2="-13.1752" gradientUnits="userSpaceOnUse">
<stop stop-color="#0068FF"/>
<stop offset="1" stop-color="#0000E1"/>
</linearGradient>
<linearGradient id="paint3_linear_51_223" x1="20.5341" y1="12.3097" x2="28.0608" y2="4.58394" gradientUnits="userSpaceOnUse">
<stop stop-color="#FF9852"/>
<stop offset="0.2774" stop-color="#FF8A3A"/>
<stop offset="1" stop-color="#FF6700"/>
</linearGradient>
</defs>
</svg>
