<svg width="50" height="50" viewBox="0 0 50 50" fill="none" xmlns="http://www.w3.org/2000/svg">
<path d="M25 4.16663C13.5 4.16663 4.16663 13.5 4.16663 25C4.16663 36.5 13.5 45.8333 25 45.8333C36.5 45.8333 45.8333 36.5 45.8333 25C45.8333 13.5 36.5 4.16663 25 4.16663ZM25 41.6666C15.7916 41.6666 8.33329 34.2083 8.33329 25C8.33329 15.7916 15.7916 8.33329 25 8.33329C34.2083 8.33329 41.6666 15.7916 41.6666 25C41.6666 34.2083 34.2083 41.6666 25 41.6666Z" fill="white"/>
<path d="M25 35.4167C30.753 35.4167 35.4167 30.753 35.4167 25C35.4167 19.2471 30.753 14.5834 25 14.5834C19.2471 14.5834 14.5834 19.2471 14.5834 25C14.5834 30.753 19.2471 35.4167 25 35.4167Z" fill="white"/>
</svg>
