<svg width="802" height="70" viewBox="0 0 802 70" fill="none" xmlns="http://www.w3.org/2000/svg">
<path d="M27.9999 37.6668C27.6463 37.6668 27.3072 37.8073 27.0571 38.0573C26.8071 38.3074 26.6666 38.6465 26.6666 39.0001L26.6666 43.7867L20.5866 37.6668C20.4622 37.5377 20.3131 37.4351 20.1481 37.365C19.9832 37.2949 19.8058 37.2587 19.6266 37.2587C19.4474 37.2587 19.27 37.2949 19.1051 37.365C18.9401 37.4351 18.791 37.5377 18.6666 37.6668C18.4183 37.9166 18.2789 38.2545 18.2789 38.6067C18.2789 38.959 18.4183 39.2969 18.6666 39.5467L24.7866 45.6667L19.9999 45.6667C19.6463 45.6667 19.3072 45.8072 19.0572 46.0573C18.8071 46.3073 18.6666 46.6465 18.6666 47.0001C18.6666 47.3537 18.8071 47.6928 19.0572 47.9429C19.3072 48.1929 19.6463 48.3334 19.9999 48.3334L27.9999 48.3334C28.1742 48.3313 28.3463 48.2951 28.5066 48.2267C28.8324 48.0914 29.0913 47.8325 29.2266 47.5067C29.2949 47.3464 29.3311 47.1743 29.3333 47.0001L29.3333 39.0001C29.3333 38.6465 29.1928 38.3074 28.9427 38.0573C28.6927 37.8073 28.3535 37.6668 27.9999 37.6668ZM11.6 32.3334C11.855 32.5519 12.1831 32.666 12.5187 32.6531C12.8543 32.6401 13.1726 32.501 13.4101 32.2635C13.6475 32.0261 13.7866 31.7078 13.7996 31.3722C13.8125 31.0366 13.6984 30.7085 13.48 30.4534L5.11995 22.0801C4.99535 21.9565 4.84755 21.8588 4.68515 21.7924C4.52265 21.7261 4.34875 21.6924 4.17325 21.6934C3.99775 21.6924 3.82385 21.7261 3.66135 21.7924C3.49895 21.8588 3.35115 21.9565 3.22655 22.0801C3.10165 22.2041 3.00245 22.3515 2.93475 22.514C2.86705 22.6765 2.83215 22.8508 2.83215 23.0268C2.83215 23.2028 2.86705 23.3771 2.93475 23.5395C3.00245 23.702 3.10165 23.8495 3.22655 23.9734L11.6 32.3334ZM19.9999 24.3334L24.7866 24.3334L3.05325 46.0534C2.80215 46.3045 2.66115 46.645 2.66115 47.0001C2.66115 47.3551 2.80215 47.6957 3.05325 47.9467C3.30435 48.1978 3.64485 48.3389 3.99995 48.3389C4.35495 48.3389 4.69555 48.1978 4.94655 47.9467L26.6666 26.2134L26.6666 31.0001C26.6666 31.3537 26.8071 31.6929 27.0571 31.9429C27.3072 32.193 27.6463 32.3334 27.9999 32.3334C28.3535 32.3334 28.6927 32.193 28.9427 31.9429C29.1928 31.6929 29.3333 31.3537 29.3333 31.0001L29.3332 23.0001C29.3311 22.8259 29.2949 22.6537 29.2266 22.4934C29.0913 22.1676 28.8324 21.9087 28.5066 21.7734C28.3463 21.7051 28.1741 21.6689 27.9999 21.6668L19.9999 21.6668C19.6463 21.6668 19.3071 21.8073 19.0571 22.0573C18.807 22.3074 18.6665 22.6465 18.6665 23.0001C18.6665 23.3537 18.807 23.6929 19.0571 23.9429C19.3071 24.193 19.6463 24.3334 19.9999 24.3334Z" fill="#0061FF"/>
<path d="M331.04 23.573C330.376 23.18 329.618 22.9727 328.847 22.9727C328.075 22.9727 327.318 23.18 326.653 23.573L314.667 30.7864V26.9997C314.667 25.9388 314.245 24.9214 313.495 24.1713C312.745 23.4211 311.728 22.9997 310.667 22.9997C309.606 22.9997 308.588 23.4211 307.838 24.1713C307.088 24.9214 306.667 25.9388 306.667 26.9997V42.9997C306.667 44.0606 307.088 45.078 307.838 45.8282C308.588 46.5783 309.606 46.9997 310.667 46.9997C311.728 46.9997 312.745 46.5783 313.495 45.8282C314.245 45.078 314.667 44.0606 314.667 42.9997V39.2131L326.667 46.3731C327.343 46.7803 328.117 46.9969 328.907 46.9997C329.66 46.9991 330.4 46.8014 331.053 46.4264C331.76 46.0279 332.347 45.4459 332.75 44.7419C333.154 44.0378 333.36 43.2379 333.347 42.4264V27.5597C333.356 26.7492 333.147 25.951 332.741 25.2494C332.335 24.5478 331.748 23.9687 331.04 23.573ZM312 42.9997C312 43.3534 311.86 43.6925 311.61 43.9425C311.36 44.1926 311.02 44.3331 310.667 44.3331C310.313 44.3331 309.974 44.1926 309.724 43.9425C309.474 43.6925 309.333 43.3534 309.333 42.9997V26.9997C309.333 26.6461 309.474 26.3069 309.724 26.0569C309.974 25.8068 310.313 25.6664 310.667 25.6664C311.02 25.6664 311.36 25.8068 311.61 26.0569C311.86 26.3069 312 26.6461 312 26.9997V42.9997ZM330.667 42.4397C330.674 42.7772 330.59 43.1104 330.424 43.4039C330.257 43.6973 330.014 43.9401 329.72 44.1064C329.463 44.263 329.168 44.3459 328.867 44.3459C328.566 44.3459 328.27 44.263 328.013 44.1064L315.573 36.6397C315.295 36.466 315.066 36.2243 314.906 35.9374C314.747 35.6505 314.664 35.3278 314.664 34.9997C314.664 34.6717 314.747 34.349 314.906 34.0621C315.066 33.7752 315.295 33.5335 315.573 33.3597L328 25.9197C328.267 25.7509 328.577 25.663 328.893 25.6664C329.184 25.6709 329.468 25.7489 329.72 25.893C330.014 26.0593 330.257 26.3021 330.424 26.5956C330.59 26.8891 330.674 27.2222 330.667 27.5597V42.4397Z" fill="#0061FF"/>
<path d="M401 5.83325C384.958 5.83325 371.833 18.9583 371.833 35C371.833 51.0415 384.958 64.1666 401 64.1666C417.042 64.1666 430.167 51.0415 430.167 35C430.167 18.9583 417.042 5.83325 401 5.83325ZM414.708 37.9166C414.125 38.7916 413.542 39.6666 412.667 39.9583L398.083 48.4166C395.167 50.1666 391.667 49 390.208 46.375C389.625 45.5 389.333 44.625 389.333 43.4583V26.5416C389.333 23.3333 391.958 20.7083 395.167 20.7083C396.333 20.7083 397.208 21 398.083 21.5833L412.667 30.0416C415.583 31.5 416.458 35 414.708 37.9166Z" fill="#0061FF"/>
<path d="M491.334 23C490.273 23 489.256 23.4214 488.506 24.1716C487.755 24.9217 487.334 25.9391 487.334 27V30.7867L475.334 23.6267C474.671 23.2309 473.913 23.0219 473.141 23.0219C472.368 23.0219 471.611 23.2309 470.947 23.6267C470.253 24.0214 469.676 24.5936 469.275 25.2848C468.874 25.9759 468.665 26.7611 468.667 27.56V42.44C468.654 43.2515 468.86 44.0514 469.264 44.7555C469.667 45.4595 470.254 46.0415 470.961 46.44C471.615 46.8104 472.355 47.0034 473.107 47C473.892 46.9947 474.661 46.7783 475.334 46.3733L487.334 39.2133V43C487.334 44.0609 487.755 45.0783 488.506 45.8284C489.256 46.5786 490.273 47 491.334 47C492.395 47 493.412 46.5786 494.162 45.8284C494.913 45.0783 495.334 44.0609 495.334 43V27C495.334 25.9391 494.913 24.9217 494.162 24.1716C493.412 23.4214 492.395 23 491.334 23ZM486.427 36.64L474.001 44.08C473.744 44.2366 473.448 44.3195 473.147 44.3195C472.846 44.3195 472.551 44.2366 472.294 44.08C472.002 43.9176 471.759 43.6798 471.59 43.3913C471.421 43.1028 471.333 42.7743 471.334 42.44V27.56C471.326 27.2226 471.41 26.8894 471.577 26.5959C471.744 26.3024 471.987 26.0596 472.281 25.8933C472.533 25.7492 472.817 25.6713 473.107 25.6667C473.423 25.6633 473.734 25.7513 474.001 25.92L486.441 33.36C486.719 33.5337 486.948 33.7754 487.108 34.0623C487.267 34.3492 487.35 34.6719 487.35 35C487.35 35.3281 487.267 35.6508 487.108 35.9377C486.948 36.2246 486.719 36.4663 486.441 36.64H486.427ZM492.667 43C492.667 43.3536 492.527 43.6928 492.277 43.9428C492.027 44.1929 491.688 44.3333 491.334 44.3333C490.98 44.3333 490.641 44.1929 490.391 43.9428C490.141 43.6928 490.001 43.3536 490.001 43V27C490.001 26.6464 490.141 26.3072 490.391 26.0572C490.641 25.8071 490.98 25.6667 491.334 25.6667C491.688 25.6667 492.027 25.8071 492.277 26.0572C492.527 26.3072 492.667 26.6464 492.667 27V43Z" fill="#0061FF"/>
<path d="M777.333 42.3332H775.333V27.6666H785.733L784.667 28.7199C784.416 28.9692 784.274 29.308 784.273 29.6619C784.271 30.0157 784.411 30.3555 784.66 30.6066C784.909 30.8577 785.248 30.9994 785.602 31.0007C785.956 31.0019 786.296 30.8626 786.547 30.6132L789.88 27.2799C790.005 27.156 790.104 27.0085 790.172 26.846C790.24 26.6835 790.274 26.5093 790.274 26.3332C790.274 26.1572 790.24 25.983 790.172 25.8205C790.104 25.658 790.005 25.5105 789.88 25.3866L786.547 22.0533C786.297 21.8049 785.959 21.6655 785.607 21.6655C785.255 21.6655 784.917 21.8049 784.667 22.0533C784.542 22.1772 784.443 22.3247 784.375 22.4871C784.307 22.6496 784.272 22.8239 784.272 22.9999C784.272 23.1759 784.307 23.3502 784.375 23.5127C784.443 23.6752 784.542 23.8226 784.667 23.9466L785.72 24.9999H774C773.646 24.9999 773.307 25.1404 773.057 25.3904C772.807 25.6405 772.667 25.9796 772.667 26.3332V43.6666C772.667 44.0202 772.807 44.3593 773.057 44.6094C773.307 44.8594 773.646 44.9999 774 44.9999H777.333C777.687 44.9999 778.026 44.8594 778.276 44.6094C778.526 44.3593 778.667 44.0202 778.667 43.6666C778.667 43.3129 778.526 42.9738 778.276 42.7237C778.026 42.4737 777.687 42.3332 777.333 42.3332ZM798 24.9999H794.667C794.313 24.9999 793.974 25.1404 793.724 25.3904C793.474 25.6405 793.333 25.9796 793.333 26.3332C793.333 26.6869 793.474 27.026 793.724 27.2761C793.974 27.5261 794.313 27.6666 794.667 27.6666H796.667V42.3332H785.507L786.56 41.2799C786.685 41.1559 786.784 41.0085 786.852 40.846C786.92 40.6835 786.954 40.5092 786.954 40.3332C786.954 40.1572 786.92 39.9829 786.852 39.8205C786.784 39.658 786.685 39.5105 786.56 39.3866C786.31 39.1382 785.972 38.9988 785.62 38.9988C785.268 38.9988 784.93 39.1382 784.68 39.3866L781.347 42.7199C781.222 42.8438 781.123 42.9913 781.055 43.1538C780.987 43.3163 780.952 43.4905 780.952 43.6666C780.952 43.8426 780.987 44.0168 781.055 44.1793C781.123 44.3418 781.222 44.4893 781.347 44.6132L784.68 47.9466C784.931 48.1959 785.271 48.3352 785.625 48.334C785.979 48.3327 786.317 48.191 786.567 47.9399C786.816 47.6888 786.955 47.349 786.954 46.9952C786.953 46.6414 786.811 46.3025 786.56 46.0532L785.507 44.9999H798C798.354 44.9999 798.693 44.8594 798.943 44.6094C799.193 44.3593 799.333 44.0202 799.333 43.6666V26.3332C799.333 25.9796 799.193 25.6405 798.943 25.3904C798.693 25.1404 798.354 24.9999 798 24.9999Z" fill="#0061FF"/>
</svg>
