<svg width="20" height="20" viewBox="0 0 20 20" fill="none" xmlns="http://www.w3.org/2000/svg">
<path d="M18.0919 16.9083L15.0003 13.8416C16.2003 12.3453 16.7815 10.446 16.6243 8.53434C16.467 6.62267 15.5833 4.84391 14.1549 3.56379C12.7264 2.28368 10.8618 1.59951 8.94439 1.65198C7.02699 1.70445 5.20256 2.48956 3.84624 3.84587C2.48992 5.20219 1.70481 7.02662 1.65235 8.94402C1.59988 10.8614 2.28404 12.7261 3.56416 14.1546C4.84428 15.583 6.62304 16.4667 8.53471 16.624C10.4464 16.7812 12.3456 16.2 13.8419 15L16.9086 18.0666C16.9861 18.1447 17.0782 18.2067 17.1798 18.249C17.2813 18.2913 17.3902 18.3131 17.5003 18.3131C17.6103 18.3131 17.7192 18.2913 17.8207 18.249C17.9223 18.2067 18.0144 18.1447 18.0919 18.0666C18.2421 17.9112 18.3261 17.7036 18.3261 17.4875C18.3261 17.2713 18.2421 17.0637 18.0919 16.9083ZM9.16696 15C8.01323 15 6.88542 14.6578 5.92613 14.0169C4.96684 13.3759 4.21917 12.4648 3.77766 11.3989C3.33615 10.333 3.22063 9.16012 3.44571 8.02856C3.67079 6.89701 4.22636 5.8576 5.04217 5.0418C5.85797 4.22599 6.89738 3.67042 8.02893 3.44534C9.16049 3.22026 10.3334 3.33578 11.3993 3.77729C12.4651 4.2188 13.3762 4.96647 14.0172 5.92576C14.6581 6.88505 15.0003 8.01286 15.0003 9.16659C15.0003 10.7137 14.3857 12.1974 13.2917 13.2914C12.1977 14.3854 10.714 15 9.16696 15Z" fill="black"/>
</svg>
